<svg xmlns="http://www.w3.org/2000/svg" viewBox="0 0 332.75 526.41"><defs><style>.cls-1{fill:#ffc134;}</style></defs><title>bullet_1</title><g id="Layer_2" data-name="Layer 2"><g id="Layer_1-2" data-name="Layer 1"><circle class="cls-1" cx="2.42" cy="2.42" r="2.42"/><circle class="cls-1" cx="2.42" cy="376.47" r="2.42"/><circle class="cls-1" cx="2.42" cy="469.98" r="2.42"/><circle class="cls-1" cx="2.42" cy="282.95" r="2.42"/><circle class="cls-1" cx="2.42" cy="236.2" r="2.42"/><circle class="cls-1" cx="2.42" cy="189.44" r="2.42"/><circle class="cls-1" cx="2.42" cy="142.69" r="2.42"/><circle class="cls-1" cx="2.42" cy="95.93" r="2.42"/><circle class="cls-1" cx="2.42" cy="49.18" r="2.42"/><circle class="cls-1" cx="2.42" cy="329.71" r="2.42"/><circle class="cls-1" cx="2.42" cy="423.22" r="2.42"/><circle class="cls-1" cx="2.42" cy="516.73" r="2.42"/><circle class="cls-1" cx="57.07" cy="6.05" r="2.42"/><circle class="cls-1" cx="57.07" cy="380.1" r="2.42"/><circle class="cls-1" cx="57.07" cy="473.61" r="2.42"/><circle class="cls-1" cx="57.07" cy="286.58" r="2.42"/><circle class="cls-1" cx="57.07" cy="239.83" r="2.42"/><circle class="cls-1" cx="57.07" cy="193.07" r="2.42"/><circle class="cls-1" cx="57.07" cy="146.32" r="2.42"/><circle class="cls-1" cx="57.07" cy="99.56" r="2.42"/><circle class="cls-1" cx="57.07" cy="52.8" r="2.42"/><circle class="cls-1" cx="57.07" cy="333.34" r="2.42"/><circle class="cls-1" cx="57.07" cy="426.85" r="2.42"/><circle class="cls-1" cx="57.07" cy="520.36" r="2.42"/><circle class="cls-1" cx="111.72" cy="3.63" r="2.42"/><circle class="cls-1" cx="111.72" cy="377.68" r="2.42"/><circle class="cls-1" cx="111.72" cy="471.19" r="2.42"/><circle class="cls-1" cx="111.72" cy="284.16" r="2.42"/><circle class="cls-1" cx="111.72" cy="237.41" r="2.42"/><circle class="cls-1" cx="111.72" cy="190.65" r="2.42"/><circle class="cls-1" cx="111.72" cy="143.9" r="2.42"/><circle class="cls-1" cx="111.72" cy="97.14" r="2.42"/><circle class="cls-1" cx="111.72" cy="50.38" r="2.42"/><circle class="cls-1" cx="111.72" cy="330.92" r="2.42"/><circle class="cls-1" cx="111.72" cy="424.43" r="2.42"/><circle class="cls-1" cx="111.72" cy="517.94" r="2.42"/><circle class="cls-1" cx="166.38" cy="4.84" r="2.42"/><circle class="cls-1" cx="166.38" cy="378.89" r="2.42"/><circle class="cls-1" cx="166.38" cy="472.4" r="2.42"/><circle class="cls-1" cx="166.38" cy="285.37" r="2.42"/><circle class="cls-1" cx="166.38" cy="238.62" r="2.42"/><circle class="cls-1" cx="166.38" cy="191.86" r="2.42"/><circle class="cls-1" cx="166.38" cy="145.11" r="2.42"/><circle class="cls-1" cx="166.38" cy="98.35" r="2.42"/><circle class="cls-1" cx="166.38" cy="51.59" r="2.42"/><circle class="cls-1" cx="166.38" cy="332.13" r="2.42"/><circle class="cls-1" cx="166.38" cy="425.64" r="2.42"/><circle class="cls-1" cx="166.38" cy="519.15" r="2.42"/><circle class="cls-1" cx="221.03" cy="9.68" r="2.42"/><circle class="cls-1" cx="221.03" cy="383.72" r="2.42"/><circle class="cls-1" cx="221.03" cy="477.24" r="2.42"/><circle class="cls-1" cx="221.03" cy="290.21" r="2.42"/><circle class="cls-1" cx="221.03" cy="243.46" r="2.42"/><circle class="cls-1" cx="221.03" cy="196.7" r="2.42"/><circle class="cls-1" cx="221.03" cy="149.95" r="2.42"/><circle class="cls-1" cx="221.03" cy="103.19" r="2.42"/><circle class="cls-1" cx="221.03" cy="56.43" r="2.42"/><circle class="cls-1" cx="221.03" cy="336.97" r="2.42"/><circle class="cls-1" cx="221.03" cy="430.48" r="2.42"/><circle class="cls-1" cx="221.03" cy="523.99" r="2.42"/><circle class="cls-1" cx="275.68" cy="7.26" r="2.42"/><circle class="cls-1" cx="275.68" cy="381.31" r="2.42"/><circle class="cls-1" cx="275.68" cy="474.82" r="2.42"/><circle class="cls-1" cx="275.68" cy="287.79" r="2.42"/><circle class="cls-1" cx="275.68" cy="241.04" r="2.42"/><circle class="cls-1" cx="275.68" cy="194.28" r="2.42"/><circle class="cls-1" cx="275.68" cy="147.53" r="2.42"/><circle class="cls-1" cx="275.68" cy="100.77" r="2.42"/><circle class="cls-1" cx="275.68" cy="54.01" r="2.42"/><circle class="cls-1" cx="275.68" cy="334.55" r="2.42"/><circle class="cls-1" cx="275.68" cy="428.06" r="2.42"/><circle class="cls-1" cx="275.68" cy="521.57" r="2.42"/><circle class="cls-1" cx="330.33" cy="8.47" r="2.42"/><circle class="cls-1" cx="330.33" cy="382.52" r="2.42"/><circle class="cls-1" cx="330.33" cy="476.03" r="2.42"/><circle class="cls-1" cx="330.33" cy="289" r="2.42"/><circle class="cls-1" cx="330.33" cy="242.25" r="2.42"/><circle class="cls-1" cx="330.33" cy="195.49" r="2.42"/><circle class="cls-1" cx="330.33" cy="148.74" r="2.42"/><circle class="cls-1" cx="330.33" cy="101.98" r="2.42"/><circle class="cls-1" cx="330.33" cy="55.22" r="2.42"/><circle class="cls-1" cx="330.33" cy="335.76" r="2.42"/><circle class="cls-1" cx="330.33" cy="429.27" r="2.42"/><circle class="cls-1" cx="330.33" cy="522.78" r="2.42"/></g></g></svg>