<?xml version="1.0" encoding="utf-8"?>
<!-- Generator: Adobe Illustrator 23.1.0, SVG Export Plug-In . SVG Version: 6.00 Build 0)  -->
<svg version="1.1" id="Layer_1" xmlns="http://www.w3.org/2000/svg" xmlns:xlink="http://www.w3.org/1999/xlink" x="0px" y="0px"
	 viewBox="0 0 122.9 120.5" style="enable-background:new 0 0 122.9 120.5;" xml:space="preserve">
<style type="text/css">
	.st0{fill-rule:evenodd;clip-rule:evenodd;fill:#F3860D;}
</style>
<g>
	<path class="st0" d="M95.7,65.5c15,0,27.2,12.2,27.2,27.2s-12.2,27.2-27.2,27.2s-27.2-12.2-27.2-27.2S80.7,65.5,95.7,65.5
		L95.7,65.5z M82.8,97.3c-0.7-0.7-1.1-1.7-1.1-2.6c0-0.9,0.3-1.9,1-2.6c0.7-0.7,1.6-1.1,2.6-1.1s1.9,0.3,2.6,1l4.8,4.5L103.7,82l0,0
		c0-0.1,0.1-0.1,0.1-0.1c3.6-3.1,8.4,2.3,4.9,5.5l-13.6,16.9l0,0c0,0-0.1,0.1-0.1,0.1c-0.7,0.6-1.6,0.9-2.5,0.9
		c-0.9,0-1.8-0.4-2.5-1L82.8,97.3L82.8,97.3z M17.7,26.7c8.1,2.7,19.4,4.4,31.9,4.4s23.8-1.7,31.9-4.4c7.1-2.4,11.5-5.2,11.5-8.1
		s-4.4-5.7-11.5-8.1c-8.1-2.7-19.4-4.4-31.9-4.4s-23.8,1.7-31.9,4.4C2.6,15.6,2.2,21.5,17.7,26.7L17.7,26.7z M6.2,47.9
		c0.6,2.6,4.8,5.3,11.4,7.5c8.1,2.7,19.4,4.4,31.9,4.4s23.8-1.7,31.9-4.4C88.6,53,93,50.1,93,47.3h0V28c-2.5,1.7-5.8,3.3-9.6,4.5
		c-8.7,2.9-20.7,4.7-33.9,4.7c-13.2,0-25.1-1.8-33.9-4.7c-3.8-1.3-7-2.8-9.5-4.5L6.2,47.9L6.2,47.9z M63.3,92.5
		c-4.3,0.4-9,0.7-13.7,0.7c-13.2,0-25.1-1.8-33.9-4.7c-3.8-1.3-7-2.8-9.5-4.5v18.5c0.6,2.6,4.8,5.3,11.4,7.5
		c8.1,2.7,19.4,4.4,31.9,4.4c7.5,0,14.6-0.6,20.8-1.7c1.6,1.9,3.3,3.7,5.3,5.2c-7.5,1.7-16.5,2.6-26.1,2.6
		c-13.2,0-25.1-1.8-33.9-4.7c-4.6-1.5-15.7-6.6-15.7-12.6c0-0.7,0-1.3,0-2C0.1,73.7,0,46.2,0,18.6C0,12.9,6,8,15.7,4.7
		C24.5,1.8,36.4,0,49.6,0s25.1,1.8,33.9,4.7c8.8,3,14.6,7.3,15.6,12.4c0.1,0.3,0.2,0.7,0.2,1v42.4c-1.2-0.1-2.4-0.2-3.7-0.2
		c-0.8,0-1.7,0-2.5,0.1v-3.7c-2.5,1.7-5.8,3.3-9.6,4.5c-8.7,2.9-20.7,4.7-33.9,4.7c-13.2,0-25.1-1.8-33.9-4.7
		c-3.8-1.3-7-2.8-9.5-4.5v18.5c0.6,2.6,4.8,5.3,11.4,7.5c8.1,2.7,19.4,4.4,31.9,4.4c5,0,9.8-0.3,14.3-0.8
		C63.5,88.3,63.3,90.4,63.3,92.5L63.3,92.5z"/>
</g>
</svg>
