<?xml version="1.0" encoding="utf-8"?>
<!-- Generator: Adobe Illustrator 23.1.0, SVG Export Plug-In . SVG Version: 6.00 Build 0)  -->
<svg version="1.1" id="Layer_1" xmlns="http://www.w3.org/2000/svg" xmlns:xlink="http://www.w3.org/1999/xlink" x="0px" y="0px"
	 viewBox="0 0 122.9 91.3" style="enable-background:new 0 0 122.9 91.3;" xml:space="preserve">
<style type="text/css">
	.st0{fill-rule:evenodd;clip-rule:evenodd;fill:#F3860D;}
</style>
<title>coding</title>
<path class="st0" d="M8.3,0h106.2c4.6,0,8.3,3.7,8.3,8.3v74.6c0,4.6-3.7,8.3-8.3,8.3H8.3c-4.6,0-8.3-3.7-8.3-8.3V8.3
	C0,3.7,3.7,0,8.3,0z M88.8,54.4c0.3-1.3,1.6-2.1,2.8-1.8s2.1,1.6,1.8,2.8l-5.1,21.9c-0.3,1.3-1.6,2.1-2.8,1.8s-2.1-1.6-1.8-2.8
	L88.8,54.4z M16.2,73.2c-1.5,0-2.7-1.2-2.7-2.7c0-1.5,1.2-2.7,2.7-2.7h25c1.5,0,2.7,1.2,2.7,2.7c0,1.5-1.2,2.7-2.7,2.7c0,0,0,0,0,0
	H16.2z M16.2,56.6c-1.5,0-2.7-1.2-2.7-2.7c0-1.5,1.2-2.7,2.7-2.7h43.4c1.5,0,2.7,1.2,2.7,2.7c0,1.5-1.2,2.7-2.7,2.7c0,0,0,0,0,0
	H16.2z M16.2,40c-1.5,0-2.7-1.2-2.7-2.7c0-1.5,1.2-2.7,2.7-2.7H85c1.5,0,2.7,1.2,2.7,2.7c0,1.5-1.2,2.7-2.7,2.7H16.2z M80.8,72
	c0.9,0.9,1,2.4,0,3.3c-0.8,0.9-2.2,1-3.1,0.2l-9-7.8c-1-0.9-1.1-2.3-0.2-3.3c0,0,0,0,0,0c0.1-0.1,0.1-0.2,0.2-0.2l9-7.8
	c1-0.9,2.5-0.8,3.3,0.2s0.8,2.5-0.2,3.3l-6.9,6.1L80.8,72z M100,75.6c-1,0.9-2.5,0.8-3.3-0.2c-0.9-1-0.8-2.5,0.2-3.3l0,0l6.9-6.1
	l-6.9-6.1c-1-0.9-1.1-2.3-0.2-3.3s2.3-1.1,3.3-0.2l9,7.8c0.1,0.1,0.2,0.1,0.2,0.2c0.9,1,0.8,2.5-0.2,3.3c0,0,0,0,0,0L100,75.6
	L100,75.6z M118,23.3H5.3v60.5c0,0.6,0.3,1.2,0.7,1.6c0.4,0.4,1,0.7,1.6,0.7h108c0.6,0,1.2-0.2,1.6-0.7c0.4-0.4,0.7-1,0.7-1.6
	L118,23.3L118,23.3z M106.6,9.4c2.3,0,4.1,1.8,4.1,4.1s-1.8,4.1-4.1,4.1s-4.1-1.8-4.1-4.1c0,0,0,0,0,0
	C102.5,11.2,104.4,9.4,106.6,9.4z M78.8,9.4c2.3,0,4.1,1.8,4.1,4.1s-1.8,4.1-4.1,4.1s-4.1-1.8-4.1-4.1S76.5,9.4,78.8,9.4L78.8,9.4z
	 M92.7,9.4c2.3,0,4.1,1.8,4.1,4.1s-1.8,4.1-4.1,4.1s-4.1-1.8-4.1-4.1S90.5,9.4,92.7,9.4L92.7,9.4z"/>
</svg>
